<?xml version="1.0" standalone="no"?>
<!DOCTYPE svg PUBLIC "-//W3C//DTD SVG 20010904//EN"
 "http://www.w3.org/TR/2001/REC-SVG-20010904/DTD/svg10.dtd">
<svg version="1.0" xmlns="http://www.w3.org/2000/svg"
 width="512.000000pt" height="512.000000pt" viewBox="0 0 512.000000 512.000000"
 preserveAspectRatio="xMidYMid meet">
<metadata>
Created by potrace 1.16, written by Peter Selinger 2001-2019
</metadata>
<g transform="translate(0.000000,512.000000) scale(0.100000,-0.100000)"
fill="#000000" stroke="none">
<path d="M1465 5106 c-72 -32 -105 -100 -105 -218 0 -133 52 -207 158 -224
l42 -7 0 -238 c0 -226 1 -240 20 -259 24 -24 76 -26 105 -4 19 14 20 30 25
262 l5 247 1528 3 1527 2 -2 -917 -3 -918 -587 -3 c-324 -1 -588 1 -588 5 0 3
34 95 75 204 41 109 75 208 75 219 0 28 -44 70 -73 70 -49 0 -66 -29 -155
-265 l-87 -230 -380 -5 c-209 -3 -387 -9 -396 -13 -43 -21 -50 -97 -13 -126
26 -20 38 -21 370 -21 189 0 344 -3 344 -7 0 -5 -28 -83 -62 -176 l-63 -168
-38 -10 c-43 -11 -200 -146 -247 -211 -16 -22 -35 -68 -44 -106 -24 -105 -82
-258 -109 -284 -16 -16 -41 -76 -73 -171 l-48 -146 -76 72 c-87 84 -170 140
-275 188 -41 19 -74 36 -75 39 0 3 21 16 47 30 65 34 152 123 190 195 79 149
84 301 15 471 -61 152 -72 222 -82 524 -7 244 -10 272 -34 353 -15 49 -33 102
-41 117 l-15 29 183 3 c184 3 184 3 220 31 72 55 72 53 75 424 3 357 0 390
-45 444 -47 56 -66 59 -351 59 -251 0 -260 -1 -302 -23 -30 -16 -51 -37 -67
-67 -22 -41 -23 -53 -23 -267 0 -122 -1 -223 -3 -223 -2 0 -39 20 -83 45 -155
89 -327 130 -507 122 -153 -6 -251 -31 -382 -96 -220 -109 -386 -291 -470
-515 -50 -133 -56 -177 -65 -476 -9 -309 -11 -324 -76 -492 -99 -254 -23 -510
192 -650 l65 -41 -56 -24 c-303 -128 -537 -417 -606 -748 -26 -123 -28 -700
-4 -759 23 -55 79 -111 135 -135 l49 -21 1313 2 1313 3 50 25 c73 35 148 114
172 180 30 80 236 1256 238 1355 2 97 17 130 109 233 75 85 96 136 96 231 0
76 -27 144 -80 204 l-32 37 75 197 75 198 634 5 c573 5 636 7 664 22 43 23 81
71 94 116 6 24 10 351 10 944 l0 906 40 7 c50 8 98 40 128 85 22 33 23 43 20
150 -3 132 -18 164 -88 200 -39 20 -65 20 -1787 20 -1434 -1 -1753 -3 -1778
-14z m3503 -195 c2 -25 1 -55 -3 -68 l-5 -23 -1718 2 -1717 3 -3 68 -3 67
1723 -2 1723 -3 3 -44z m-2328 -1021 l0 -330 -203 0 -203 0 -37 44 -37 45 0
279 c0 153 3 282 7 285 3 4 111 7 240 7 l233 0 0 -330z m-1344 -161 c78 -54
166 -140 219 -214 51 -71 89 -145 76 -145 -6 0 -47 -31 -93 -70 -139 -116
-298 -180 -450 -180 -100 0 -153 -16 -201 -61 -30 -29 -49 -39 -72 -39 -18 0
-51 -7 -74 -15 l-41 -14 0 32 c0 57 20 160 46 238 60 184 204 354 376 444 59
31 131 62 149 64 3 1 32 -17 65 -40z m500 -504 c12 -8 59 -60 105 -117 l84
-103 0 -200 c0 -133 -5 -218 -14 -255 -47 -193 -204 -350 -392 -395 -264 -62
-537 94 -620 354 -17 52 -22 101 -26 233 -7 218 -10 212 124 222 215 14 381
79 533 210 88 76 144 90 206 51z m-1014 -495 c3 -144 2 -147 -59 -110 -75 45
-84 148 -19 207 20 18 45 33 55 33 19 0 20 -9 23 -130z m1422 109 c90 -71 64
-214 -44 -235 -31 -7 -33 -6 -27 17 4 13 7 72 7 132 0 98 2 107 19 107 10 0
30 -9 45 -21z m-1436 -396 l47 -6 39 -78 c41 -84 147 -210 212 -249 34 -22 34
-22 34 -96 l0 -74 -131 -66 -131 -65 -45 15 c-104 36 -169 92 -220 189 -24 45
-28 64 -28 142 0 82 4 100 45 211 l45 121 42 -19 c24 -10 64 -22 91 -25z
m2531 -320 c35 -42 48 -104 31 -147 -6 -16 -38 -59 -72 -94 -35 -38 -73 -93
-90 -129 -23 -47 -34 -62 -47 -59 -9 3 -43 12 -76 22 -33 9 -61 17 -62 18 -2
2 10 43 27 92 16 49 34 109 40 134 10 37 26 59 93 122 50 48 90 78 104 78 13
0 34 -15 52 -37z m-1955 -124 c89 -17 210 -10 299 17 15 5 17 -2 17 -48 0 -29
9 -91 21 -138 24 -102 38 -253 30 -335 l-6 -60 -70 -18 c-95 -24 -267 -24
-355 0 l-65 18 -9 55 c-10 64 5 234 29 324 8 32 18 92 22 133 5 62 9 73 22 68
9 -4 38 -11 65 -16z m676 -342 c0 -4 -18 -38 -41 -75 -37 -62 -40 -72 -37
-125 3 -40 11 -66 26 -85 55 -68 54 -65 33 -116 -26 -60 -87 -149 -177 -261
-98 -121 -147 -175 -138 -150 4 11 27 71 51 134 96 247 141 479 128 655 -4 49
-9 95 -12 103 -3 8 29 -3 81 -29 47 -23 86 -46 86 -51z m-964 -84 c0 -120 5
-191 18 -248 17 -78 117 -384 150 -457 9 -21 14 -38 12 -38 -10 0 -204 240
-249 307 -57 86 -91 159 -81 176 4 6 22 29 38 51 27 33 31 46 31 100 0 56 -4
69 -37 119 -21 31 -38 63 -38 70 0 10 128 84 150 86 3 1 5 -74 6 -166z m1973
-10 c56 -15 101 -31 101 -35 0 -3 -49 -284 -109 -623 -73 -408 -116 -628 -129
-653 -11 -22 -38 -49 -67 -67 l-48 -30 -1066 0 -1066 0 -5 183 c-5 167 -7 185
-24 198 -29 21 -80 18 -102 -7 -17 -19 -19 -41 -22 -200 l-3 -179 -120 0
c-137 0 -179 12 -203 59 -22 43 -23 509 -1 634 31 180 111 339 234 470 81 86
161 144 275 198 98 47 105 47 140 -13 l21 -37 -26 -28 c-38 -40 -59 -86 -59
-128 0 -126 186 -389 500 -708 161 -163 178 -177 210 -177 32 0 49 14 195 163
260 263 428 478 489 624 40 97 32 157 -32 226 l-26 28 19 34 c31 59 38 61 110
30 137 -58 265 -154 350 -263 l43 -54 -109 -326 c-60 -180 -109 -339 -109
-354 0 -59 85 -93 124 -49 9 10 98 261 196 557 99 297 182 545 185 553 3 7 12
11 19 8 8 -3 60 -18 115 -34z m-1658 -313 c85 -10 240 -1 284 17 15 5 16 1 10
-28 -20 -92 -189 -519 -205 -519 -19 0 -210 491 -210 538 0 9 6 12 16 8 8 -3
56 -11 105 -16z"/>
<path d="M3082 4363 c-7 -3 -19 -18 -28 -35 -13 -25 -13 -35 -3 -59 6 -17 20
-34 30 -39 11 -6 280 -10 694 -10 l676 0 24 25 c14 13 25 36 25 50 0 14 -11
37 -25 50 l-24 25 -678 -1 c-373 0 -684 -3 -691 -6z"/>
<path d="M3090 3957 c-38 -19 -54 -60 -38 -94 7 -15 24 -33 38 -40 35 -18
1330 -19 1363 -1 61 32 64 103 6 133 -24 13 -128 15 -686 15 -510 0 -664 -3
-683 -13z"/>
<path d="M3082 3553 c-7 -3 -19 -18 -28 -35 -13 -25 -13 -35 -3 -59 6 -17 20
-34 30 -39 10 -6 127 -10 269 -10 l251 0 24 25 c14 13 25 36 25 50 0 14 -11
37 -25 50 l-24 25 -253 -1 c-139 0 -259 -3 -266 -6z"/>
</g>
</svg>
